<svg width="537" height="1861" viewBox="0 0 537 1861" fill="none" xmlns="http://www.w3.org/2000/svg">
<path d="M479.834 0V281.291C469.776 473.625 181.819 435 88.9975 435C-3.82446 435 16.4701 326.571 66.4976 349.5C138.498 382.5 65.2196 441 36.4976 514.5C11.2925 579 51.5016 670.5 25.9976 747C16.9047 795 -29.7731 944.307 443.898 930.106C488.901 930.106 537.522 888.506 511.401 838.875C500.151 817.5 417.809 788.413 405.651 894C396.176 976.288 570.498 1245.38 471.498 1336.5C434.748 1374 302.943 1327.34 145.251 1371.75C-38.5 1423.5 19.9997 1702.5 129.5 1860" stroke="#EAC94D" stroke-width="3.375" stroke-linejoin="round" stroke-dasharray="22.5 22.5"/>
<ellipse cx="479.902" cy="1124.25" rx="33.75" ry="33.75" fill="#14120B"/>
<ellipse cx="479.902" cy="1124.59" rx="15.75" ry="15.75" fill="#EAC94D"/>
<ellipse cx="34.0273" cy="650.25" rx="33.75" ry="33.75" fill="#14120B"/>
<ellipse cx="34.0273" cy="650.25" rx="15.75" ry="15.75" fill="#EAC94D"/>
<ellipse cx="479.902" cy="177.75" rx="56.25" ry="56.25" fill="#14120B" fill-opacity="0.39"/>
<ellipse cx="479.902" cy="177.75" rx="33.75" ry="33.75" fill="#443B1B" fill-opacity="0.29"/>
<ellipse cx="479.902" cy="177.75" rx="15.75" ry="15.75" fill="#EAC94D"/>
</svg>
